<?xml version="1.0" encoding="UTF-8" standalone="no"?>
<!DOCTYPE svg PUBLIC "-//W3C//DTD SVG 1.1//EN" "http://www.w3.org/Graphics/SVG/1.1/DTD/svg11.dtd">
<!-- Created with Vectornator (http://vectornator.io/) -->
<svg height="100%" stroke-miterlimit="10" style="fill-rule:nonzero;clip-rule:evenodd;stroke-linecap:round;stroke-linejoin:round;" version="1.1" viewBox="0 0 1024 1024" width="100%" xml:space="preserve" xmlns="http://www.w3.org/2000/svg" xmlns:vectornator="http://vectornator.io" xmlns:xlink="http://www.w3.org/1999/xlink">
<defs/>
<g id="Capa-1-copiar-copiar-copiar-copiar-copiar" vectornator:layerName="Capa 1 copiar copiar copiar copiar copiar">
<path d="M362.125 287.844C358.307 287.839 354.809 288.344 351.5 289.125C326.587 294.379 308.031 318.21 308.031 346.469C308.031 370.024 320.909 390.507 339.625 399.719C340.562 400.18 343.009 401.172 346.781 402.062C346.781 402.062 347.63 397.813 348.469 393.625L350.594 384.219C340.47 385.057 332.489 381.527 326.781 375.438C321.301 367.35 318.031 357.348 318.031 346.469C318.031 338.429 319.957 330.956 323.094 324.281C324.867 320.799 326.922 317.46 329.312 314.312C337.336 304.395 348.864 298.031 361.844 298.031C375.06 298.031 386.794 304.603 394.812 314.844C399.052 321.438 401.625 328.875 401.625 336C401.625 339.319 401.02 343.205 400.281 347L321.406 535.344C314.408 551.783 310.501 561.215 309.688 563.656C299.596 589.535 290.974 606.506 283.812 614.562C276.651 622.619 265.742 627.784 251.094 630.062L251.094 641.312L349.469 641.312L349.469 630.062C346.824 630.062 344.312 629.914 341.906 629.594C334.689 628.632 328.535 626.22 323.469 622.375C316.714 617.248 313.344 609.741 313.344 599.812C313.344 590.535 319.68 570.655 332.375 540.219L340.938 519.25L466.656 519.25L488.375 571.625C488.504 571.456 488.587 571.261 488.719 571.094C493.069 565.657 500.668 559.543 510.406 552.688C504.711 543.538 501.375 534.625 501.375 525.938C501.375 517.704 504.701 510.259 510.594 504.094L427.125 305.625L417.594 305.625L413 316.562C411.914 314.961 393.143 287.882 362.125 287.844ZM403.938 367.125L462.531 508.25L345.562 508.25L403.938 367.125ZM551.094 628.156C542.616 634.062 533.504 637.261 523.844 637.281C520.758 637.325 517.695 636.93 514.656 636.281C526.033 657.202 541.906 683.938 541.906 683.938C541.906 683.938 548.008 651.884 551.094 628.156Z" fill="#000000" fill-rule="nonzero" opacity="1" stroke="none" vectornator:layerName="Curva 16"/>
<path d="M631 350.906C605.935 350.906 585.232 358.762 568.875 374.469C552.518 390.175 544.344 409.837 544.344 433.438C544.344 448.9 548.119 463.453 555.688 477.125C563.256 490.797 573.803 501.893 587.312 510.438C600.822 518.982 620.845 528.951 647.375 540.344C677.16 553.039 697.645 564.932 708.875 576C720.105 587.23 725.75 601.148 725.75 617.75C725.75 634.189 719.339 649.048 706.562 662.312C693.786 675.577 675.775 682.219 652.5 682.219C616.755 682.219 590.296 665.176 572.656 632.062C567.839 629.448 563.3 626.01 559.156 621.562C553.707 626.719 547.933 630.647 541.906 633.312L541.906 684.656L554.094 684.656C556.698 670.822 554.004 643.868 559.375 636.219C577.241 678.557 620.579 694.156 656.875 694.156C688.451 694.156 713.682 685.303 732.562 667.562C751.443 649.822 760.906 626.789 760.906 598.469C760.906 580.565 757 564.766 749.188 551.094C741.375 537.422 730.971 526.731 718.031 519C705.092 511.269 684.389 501.039 655.906 488.344C626.121 474.997 605.549 462.961 594.156 452.219C582.6 441.639 576.812 428.706 576.812 413.406C576.812 400.711 581.398 389.036 590.594 378.375C599.79 367.714 614.243 362.375 633.938 362.375C654.608 362.375 672.794 369.608 688.5 384.094C704.206 398.579 715.159 418.46 721.344 443.688L732.094 443.688L732.094 357L721.344 357C720.367 367.417 716.143 377.111 708.656 386.062C695.635 371.74 682.932 362.307 670.562 357.75C658.193 353.193 644.997 350.906 631 350.906Z" fill="#000000" fill-rule="nonzero" opacity="1" stroke="none" vectornator:layerName="Curva 17"/>
<path d="M534.71 500.324C526.897 500.324 520.458 502.947 515.398 508.199C510.274 513.451 507.71 519.352 507.71 525.949C507.71 534.403 511.467 543.853 518.96 554.293C506.471 562.683 498.034 569.599 493.679 575.043C489.324 580.551 487.148 587.318 487.148 595.324C487.02 600.576 488.003 605.405 490.117 609.793C492.23 614.18 495.033 617.935 498.492 621.105C501.95 624.275 505.885 626.751 510.304 628.48C514.723 630.209 519.194 631.013 523.742 630.949C536.359 630.949 548.284 624.689 559.492 612.136C568.97 624.689 579.94 630.949 592.429 630.949C598.193 630.949 603.261 629.37 607.617 626.168C608.741 625.337 609.645 624.36 610.554 623.386C609.05 622.065 607.749 620.586 606.585 619.011C604.096 620.807 601.285 621.949 597.929 621.949C593.574 621.949 589.4 620.606 585.429 617.98C581.522 615.418 576.157 609.218 569.304 599.355C572.186 595.576 575.346 589.554 578.804 581.293C582.967 571.237 586.932 564.47 590.71 561.011C594.681 557.425 599.243 554.952 604.367 553.543L604.367 549.105L563.242 549.105L563.242 553.543C573.233 554.695 578.242 558.958 578.242 566.324C578.242 569.462 577.168 573.724 575.054 579.168C572.941 584.676 570.048 589.983 566.398 595.043C561.338 587.805 556.152 580.472 550.804 573.043C545.456 565.613 539.881 558.011 534.117 550.261C552.562 540.975 561.804 531.406 561.804 521.543C561.804 515.266 559.001 510.138 553.429 506.168C547.921 502.261 541.691 500.324 534.71 500.324ZM535.085 504.918C537.391 504.918 539.508 505.335 541.429 506.168C543.351 507 544.99 508.193 546.367 509.73C547.744 511.267 548.818 513.116 549.554 515.261C550.291 517.407 550.648 519.762 550.648 522.324C550.648 531.034 544.238 539.112 531.429 546.605C523.68 535.781 519.804 527.225 519.804 520.949C519.804 516.337 521.206 512.553 523.96 509.543C526.714 506.468 530.41 504.918 535.085 504.918ZM521.835 558.23C526.703 564.635 532.009 571.998 537.773 580.293C543.537 588.587 549.828 597.887 556.617 608.199C548.995 616.973 540.767 621.355 531.929 621.355C523.923 621.355 516.738 617.867 510.398 610.886C504.057 603.905 500.898 596.453 500.898 588.511C500.898 583.452 502.716 578.144 506.367 572.636C510.017 567.192 515.175 562.393 521.835 558.23Z" fill="#000000" fill-rule="nonzero" opacity="1" stroke="none" vectornator:layerName="Curva 4"/>
</g>
<g id="Capa-2-copiar" vectornator:layerName="Capa 2 copiar">
<g opacity="1" vectornator:layerName="Grupo 1">
<g opacity="1" vectornator:layerName="path">
<clipPath clip-rule="evenodd" id="ClipPath">
<path d="M174.345 82L849.655 82L849.655 941.489L174.345 941.489L174.345 82Z"/>
</clipPath>
<g clip-path="url(#ClipPath)">
<path d="M174.345 82L849.655 82L849.655 941.489L174.345 941.489L174.345 82Z" fill="none" opacity="1" stroke="#000000" stroke-linecap="butt" stroke-linejoin="miter" stroke-width="16" vectornator:layerName="path"/>
</g>
</g>
<g opacity="1" vectornator:layerName="path">
<clipPath clip-rule="evenodd" id="ClipPath_2">
<path d="M195.448 108.859L828.552 108.859L828.552 914.63L195.448 914.63L195.448 108.859Z"/>
</clipPath>
<g clip-path="url(#ClipPath_2)">
<path d="M195.448 108.859L828.552 108.859L828.552 914.63L195.448 914.63L195.448 108.859Z" fill="none" opacity="1" stroke="#000000" stroke-linecap="butt" stroke-linejoin="miter" stroke-width="16" vectornator:layerName="path"/>
</g>
</g>
</g>
<g opacity="1" vectornator:layerName="Grupo 2">
<g opacity="1" vectornator:layerName="use">
<clipPath clip-rule="nonzero" id="ClipPath_3">
<path d="M5.71875 5.71875L5.71875 1018.28L1018.28 1018.28L1018.28 5.71875L5.71875 5.71875ZM509.344 17.0312L1006.97 509.344L514.656 1006.97L17.0312 514.656L509.344 17.0312Z"/>
</clipPath>
<g clip-path="url(#ClipPath_3)">
<path d="M509.355 17.0323L1006.97 509.355L514.645 1006.97L17.0323 514.645L509.355 17.0323Z" fill="none" opacity="1" stroke="#000000" stroke-linecap="butt" stroke-linejoin="miter" stroke-width="16" vectornator:layerName="path"/>
</g>
</g>
<g opacity="1" vectornator:layerName="use">
<clipPath clip-rule="nonzero" id="ClipPath_4">
<path d="M41.0625 41.0625L41.0625 982.938L982.938 982.938L982.938 41.0625L41.0625 41.0625ZM509.531 52.375L971.625 509.531L514.469 971.625L52.375 514.469L509.531 52.375Z"/>
</clipPath>
<g clip-path="url(#ClipPath_4)">
<path d="M509.544 52.3872L971.613 509.544L514.456 971.613L52.3872 514.456L509.544 52.3872Z" fill="none" opacity="1" stroke="#000000" stroke-linecap="butt" stroke-linejoin="miter" stroke-width="16" vectornator:layerName="path"/>
</g>
</g>
</g>
<g opacity="1" vectornator:layerName="Grupo 1">
<path d="M387 87L387 137L137 137L137 887L387 887L387 937L637 937L637 887L887 887L887 137L637 137L637 87L387 87Z" fill="none" opacity="1" stroke="#000000" stroke-linecap="butt" stroke-linejoin="miter" stroke-width="8" vectornator:layerName="Curva 1"/>
<path d="M362 62L362 112L112 112L112 912L362 912L362 962L662 962L662 912L912 912L912 112L662 112L662 62L362 62Z" fill="none" opacity="1" stroke="#000000" stroke-linecap="butt" stroke-linejoin="miter" stroke-width="8" vectornator:layerName="Curva 1"/>
</g>
</g>
</svg>
